<?xml version="1.0" encoding="UTF-8" standalone="no"?>
<!DOCTYPE svg PUBLIC "-//W3C//DTD SVG 1.1//EN" "http://www.w3.org/Graphics/SVG/1.1/DTD/svg11.dtd">
<svg width="100%" height="100%" viewBox="0 0 220 220" version="1.1" xmlns="http://www.w3.org/2000/svg" xmlns:xlink="http://www.w3.org/1999/xlink" xml:space="preserve" xmlns:serif="http://www.serif.com/" style="fill-rule:evenodd;clip-rule:evenodd;stroke-linejoin:round;stroke-miterlimit:2;">
    <g transform="matrix(3.33333,0,0,3.33333,0,0)">
        <g transform="matrix(1.08696,0,0,1.125,-17.6957,-17.25)">
            <path d="M77,62C77,59.792 75.145,58 72.86,58L58.14,58C55.855,58 54,59.792 54,62C54,64.208 55.855,66 58.14,66L72.86,66C75.145,66 77,64.208 77,62Z" style="fill:rgb(248,229,195);"/>
        </g>
        <g transform="matrix(6.65569e-17,1.08696,-1.125,6.88864e-17,123.25,-18.6957)">
            <path d="M77,62C77,59.792 75.145,58 72.86,58L58.14,58C55.855,58 54,59.792 54,62C54,64.208 55.855,66 58.14,66L72.86,66C75.145,66 77,64.208 77,62Z" style="fill:rgb(248,229,195);"/>
        </g>
        <g transform="matrix(0.888889,0,0,0.909091,-14.7778,-9.09091)">
            <path d="M51.5,10C63.918,10 74,19.858 74,32C74,44.142 63.918,54 51.5,54C39.082,54 29,44.142 29,32C29,19.858 39.082,10 51.5,10ZM51.5,21C57.709,21 62.75,25.929 62.75,32C62.75,38.071 57.709,43 51.5,43C45.291,43 40.25,38.071 40.25,32C40.25,25.929 45.291,21 51.5,21Z" style="fill:rgb(248,229,195);"/>
        </g>
        <g transform="matrix(1.28846,0.0331942,-0.0327779,1.27231,-34.3069,16.5767)">
            <path d="M65.203,14.55C61.272,11.6 56.455,10 51.5,10C39.082,10 29,19.858 29,32C29,32.486 29.016,32.972 29.049,33.458L36.017,33.005C35.994,32.671 35.983,32.335 35.983,32C35.983,23.626 42.936,16.828 51.5,16.828C54.918,16.828 58.24,17.931 60.95,19.966L65.203,14.55Z" style="fill:rgb(248,229,195);"/>
        </g>
        <g transform="matrix(1,0,0,1,-14,-10)">
            <ellipse cx="20" cy="71.5" rx="4" ry="3.5" style="fill:rgb(248,229,195);"/>
        </g>
        <g transform="matrix(1,0,0,1,25,-32)">
            <ellipse cx="20" cy="71.5" rx="4" ry="3.5" style="fill:rgb(248,229,195);"/>
        </g>
    </g>
</svg>
